<svg width="21" height="22" viewBox="0 0 21 22" fill="none" xmlns="http://www.w3.org/2000/svg">
<path d="M18.4371 3.27246H3.10034V18.6092H18.4371V3.27246ZM8.21258 15.201H6.06289V9.23674H8.21258V15.201ZM7.09982 8.14357C6.4429 8.14357 6.0041 7.70562 6.0041 7.12112C6.0041 6.53662 6.44204 6.09867 7.17224 6.09867C7.82917 6.09867 8.26797 6.53662 8.26797 7.12112C8.26797 7.70562 7.83002 8.14357 7.09982 8.14357ZM15.881 15.201H13.8003V11.9411C13.8003 11.0396 13.2456 10.8317 13.0377 10.8317C12.8298 10.8317 12.1362 10.9706 12.1362 11.9411C12.1362 12.08 12.1362 15.201 12.1362 15.201H9.98653V9.23674H12.1362V10.0692C12.4132 9.58352 12.9678 9.23674 14.0082 9.23674C15.0485 9.23674 15.881 10.0692 15.881 11.9411V15.201Z" fill="#2A4461"/>
</svg>
