<svg width="21" height="21" viewBox="0 0 21 21" fill="none" xmlns="http://www.w3.org/2000/svg">
<mask id="mask0_6392_2297" style="mask-type:luminance" maskUnits="userSpaceOnUse" x="0" y="0" width="21" height="21">
<path d="M20.9927 0.543457H0.543701V20.9925H20.9927V0.543457Z" fill="white"/>
</mask>
<g mask="url(#mask0_6392_2297)">
<path d="M7.22073 0.543457C4.32727 0.543457 1.97363 2.89928 1.97363 5.79349V13.2915C1.97363 16.1849 4.32945 18.5386 7.22366 18.5386H14.7216C17.6151 18.5386 19.9687 16.1828 19.9687 13.2886V5.79056C19.9687 2.8971 17.6129 0.543457 14.7187 0.543457H7.22073ZM16.2197 3.54264C16.6336 3.54264 16.9695 3.87855 16.9695 4.29244C16.9695 4.70632 16.6336 5.04223 16.2197 5.04223C15.8059 5.04223 15.4699 4.70632 15.4699 4.29244C15.4699 3.87855 15.8059 3.54264 16.2197 3.54264ZM10.9712 5.04223C13.4522 5.04223 15.4699 7.05993 15.4699 9.541C15.4699 12.0221 13.4522 14.0398 10.9712 14.0398C8.4901 14.0398 6.4724 12.0221 6.4724 9.541C6.4724 7.05993 8.4901 5.04223 10.9712 5.04223ZM10.9712 6.54182C10.1757 6.54182 9.41289 6.85781 8.85043 7.42026C8.28798 7.98272 7.97199 8.74557 7.97199 9.541C7.97199 10.3365 8.28798 11.0993 8.85043 11.6618C9.41289 12.2242 10.1757 12.5402 10.9712 12.5402C11.7666 12.5402 12.5295 12.2242 13.0919 11.6618C13.6544 11.0993 13.9704 10.3365 13.9704 9.541C13.9704 8.74557 13.6544 7.98272 13.0919 7.42026C12.5295 6.85781 11.7666 6.54182 10.9712 6.54182Z" fill="#2A4461"/>
</g>
</svg>
